<?xml version="1.0" standalone="no"?>
<!DOCTYPE svg PUBLIC "-//W3C//DTD SVG 20010904//EN"
 "http://www.w3.org/TR/2001/REC-SVG-20010904/DTD/svg10.dtd">
<svg version="1.0" xmlns="http://www.w3.org/2000/svg"
 width="3840.000000pt" height="3840.000000pt" viewBox="0 0 3840.000000 3840.000000"
 preserveAspectRatio="xMidYMid meet">
<metadata>
Created by potrace 1.14, written by Peter Selinger 2001-2017
</metadata>
<g transform="translate(0.000000,3840.000000) scale(0.100000,-0.100000)"
fill="#000000" stroke="none">
<path d="M18810 29814 c-720 -33 -1285 -106 -1930 -250 -840 -186 -1641 -471
-2420 -860 -871 -436 -1652 -969 -2385 -1628 -146 -132 -486 -468 -648 -641
-1279 -1368 -2187 -3089 -2591 -4915 -126 -564 -193 -1039 -238 -1675 -17
-237 -17 -1053 0 -1290 45 -636 112 -1111 238 -1675 249 -1125 698 -2235 1302
-3220 222 -362 536 -806 803 -1137 435 -538 1044 -1147 1582 -1582 1631 -1318
3612 -2124 5692 -2315 361 -33 533 -40 985 -40 452 0 624 7 985 40 2082 191
4060 996 5692 2315 538 435 1147 1044 1582 1582 1319 1631 2124 3611 2315
5692 33 361 40 533 40 985 0 452 -7 624 -40 985 -148 1610 -669 3180 -1512
4555 -223 363 -531 799 -804 1137 -432 535 -1046 1149 -1581 1581 -1531 1236
-3348 2016 -5287 2271 -446 59 -786 81 -1290 85 -228 2 -449 2 -490 0z m1270
-6594 c-37 -790 -211 -1469 -551 -2150 -266 -532 -572 -954 -996 -1371 -396
-390 -797 -676 -1278 -913 -554 -274 -1052 -413 -1735 -487 -129 -14 -5184
-25 -5178 -11 1 5 2195 2284 4873 5066 l4870 5057 3 -2483 c2 -1653 -1 -2558
-8 -2708z m7978 -3098 c-1 -5 -2194 -2285 -4873 -5066 l-4870 -5057 -3 2488
c-3 2507 0 2759 33 3058 43 389 121 751 240 1109 144 437 383 918 647 1303
579 846 1421 1512 2349 1858 500 187 1021 291 1534 308 223 7 4946 6 4943 -1z"/>
</g>
</svg>
